<svg xmlns="http://www.w3.org/2000/svg" width="193.628" height="169.406" viewBox="0 0 193.628 169.406">
  <g id="Group_4753" data-name="Group 4753" transform="translate(-1118.767 -338.625)">
    <path id="Path_6190" data-name="Path 6190" d="M154.773,18.376c1.131.775,8.812,1.692,8.962,3.068,0,0,.128,19.751,3.155,25.276,5.414,9.531,4.335,31.253,4.335,31.253S154.66,80.224,106.2,65.892c0,0-.908-20.936,7.646-26.981a22.192,22.192,0,0,0,6.685-6.445,10.631,10.631,0,0,0,1.551-4.427c.811-4.784,14.013-22.475,32.687-9.663" transform="translate(1063.766 355.695) rotate(-8)"/>
    <path id="Path_6182" data-name="Path 6182" d="M106.714,172.315,96.663,139.136l-22.108,8.288L85.162,179.2a11.313,11.313,0,0,0,21.552-6.884" transform="translate(1138.156 292.299) rotate(-8)" fill="#fcb8ad"/>
    <path id="Path_6183" data-name="Path 6183" d="M116.156,102.584a11.993,11.993,0,1,0-22.848,7.3L99.5,128.59,121.61,120.3Z" transform="translate(1116.076 314.418) rotate(-8)" fill="#fff"/>
    <path id="Path_6184" data-name="Path 6184" d="M0,150.863l25.25-47.877s-.576-8.651,13.794-9.167l0,.013c.2-.009.39-.027.586-.027h4.8a1.819,1.819,0,0,1,1.827,1.512A1.777,1.777,0,0,1,44.72,97.34l-4.845.685,6.59,1.759,1.231.454,8.975-5.93a1.455,1.455,0,0,1,1.778,2.3c-.554.462-1.445,1.227-2.417,2.066l1.982-1.186A1.455,1.455,0,0,1,59.6,99.925l-1.769,1.246.689-.269a1.777,1.777,0,0,1,2.109.585,1.711,1.711,0,0,1-.745,2.555l-9.808,4.1a8.1,8.1,0,0,1-5.3.679l-8.743-2.06L16.472,161.521Z" transform="translate(1229.57 298.6) rotate(-8)" fill="#fcb8ad"/>
    <path id="Path_6185" data-name="Path 6185" d="M157.711,93.745l9.386.7s13.591,18.435-14,65.781l-36.382-1.789-2.741-51.011,4.492-14.481h16.3Z" transform="translate(1055.529 323.424) rotate(-8)" fill="#fff"/>
    <path id="Path_6187" data-name="Path 6187" d="M202.6,162.284l15.109-31.2,20.543,11.639-15.439,29.728A11.313,11.313,0,0,1,202.6,162.284" transform="translate(935.775 324.143) rotate(-8)" fill="#fcb8ad"/>
    <path id="Path_6188" data-name="Path 6188" d="M191.758,97.625A11.993,11.993,0,1,1,213.186,108.4l-9.04,17.512L183.6,114.275Z" transform="translate(971.889 336.039) rotate(-8)" fill="#fff"/>
    <path id="Path_6189" data-name="Path 6189" d="M233.39,86.453a1.778,1.778,0,0,1,2.109-.585l4.389,1.713-4.122-3.488a1.757,1.757,0,0,1-.358-2.328,1.713,1.713,0,0,1,2.48-.357l3.835,3.089-3.269-4.275a1.757,1.757,0,0,1,.148-2.351,1.713,1.713,0,0,1,2.5.182l6.455,6.7,6.591-1.759-4.845-.685a1.777,1.777,0,0,1-1.536-2.023,1.819,1.819,0,0,1,1.827-1.512h4.8a11.529,11.529,0,0,1,7.707,2.875c.035.027.067.045.1.074,2.948,2.325,1.875,7.088,1.875,7.088l18.1,51.233L264.243,148,253.9,92.978l-6.6.012a7.065,7.065,0,0,1-1.23,0h-.05l0,0a6.992,6.992,0,0,1-2.081-.511l-9.807-3.471a1.711,1.711,0,0,1-.745-2.554" transform="translate(877.178 355.051) rotate(-8)" fill="#fcb8ad"/>
    <path id="Path_6191" data-name="Path 6191" d="M115.9,42.909a5.811,5.811,0,1,0,6.2-5.393,5.81,5.81,0,0,0-6.2,5.393" transform="translate(1100.174 340.57) rotate(-8)" fill="#f18c7c"/>
    <path id="Path_6192" data-name="Path 6192" d="M155.979,66.228l-.8,12.638c-.273,4.438-2.088,7.462-6.454,7.158-3.727-.259-8.162-3.246-8.367-6.977l2.222-19.828Z" transform="translate(1056.619 337.516) rotate(-8)" fill="#fcb8ad"/>
    <path id="Path_6193" data-name="Path 6193" d="M158.787,93.745l-22.944-.8s.558,11.28,14.2,10.224c9.478-.735,8.748-9.425,8.748-9.425" transform="translate(1054.461 323.572) rotate(-8)" fill="#fcb8ad"/>
    <path id="Path_6194" data-name="Path 6194" d="M154.833,78.855,140.168,64.517,155.6,67.15Z" transform="translate(1056.791 335.256) rotate(-8)" fill="#f18c7c"/>
    <path id="Path_6195" data-name="Path 6195" d="M137.983,45.268h0c7.466.022,13.632-5.857,13.855-11.954l.44-14.388A14.174,14.174,0,0,0,139.1,4.268c-7.809-.543-15.949,5.252-16.492,13.061L122.378,28.9c-.176,8.953,6.672,15.742,15.605,16.364" transform="translate(1073.834 358.326) rotate(-8)" fill="#fcb8ad"/>
    <path id="Path_6197" data-name="Path 6197" d="M146.429,30.446s4.251-.515,4.18.9c0,0-.017.737-3.615.887s-4.535-.025-4.863-.733,2.365-1.05,4.3-1.057" transform="translate(1062.248 350.463) rotate(-8)"/>
    <path id="Path_6198" data-name="Path 6198" d="M2.78,1.723S5.9,1.9,6.2.847c0,0,.175-.712-2.562-.821S.053.153,0,.755c-.061.717,1.29.978,2.778.968" transform="translate(1226.957 362.181) rotate(-175)"/>
    <path id="Path_6199" data-name="Path 6199" d="M127.31,42.259a1.32,1.32,0,1,0,1.363-1.276,1.32,1.32,0,0,0-1.363,1.276" transform="translate(1090.973 340.395) rotate(-8)"/>
    <path id="Path_6200" data-name="Path 6200" d="M146.366,41.635a1.321,1.321,0,1,0,1.363-1.277,1.321,1.321,0,0,0-1.363,1.277" transform="translate(1061.16 344.846) rotate(-8)"/>
    <path id="Path_6201" data-name="Path 6201" d="M4.308.194S2.356-.7,0,1.338" transform="matrix(0.999, 0.052, -0.052, 0.999, 1217.117, 373.898)" fill="none" stroke="#f18c7c" stroke-linecap="round" stroke-linejoin="round" stroke-width="1"/>
    <path id="Path_6202" data-name="Path 6202" d="M141.357.024a17.908,17.908,0,0,1,5.54.585c4.472,1.191,12.5,4.5,13.879,13.092a6,6,0,0,1,.14,3.022s-15,.589-23.865-3.6c-1.277,5.4-2.456,8.747-7.793,14.008l-4.738-7.122-5.335,4.784c-.034.181-.028-23.592,22.171-24.771" transform="translate(1067.266 361.036) rotate(-8)"/>
    <path id="Path_6203" data-name="Path 6203" d="M167.231,43.008a5.811,5.811,0,1,0,6.2-5.393,5.811,5.811,0,0,0-6.2,5.393" transform="translate(1019.771 351.828) rotate(-8)" fill="#fcb8ad"/>
    <path id="Path_6205" data-name="Path 6205" d="M-14603.564-23465.937l-7.5,16.311,5.8-21.92Z" transform="translate(18985.367 21632.227) rotate(-8)" fill="#f18c7c"/>
    <path id="Path_6207" data-name="Path 6207" d="M-14816.5-23025.328l2.682,20.383-5.247-15.164Z" transform="translate(19044.58 21168.619) rotate(-8)" fill="#f18c7c"/>
    <path id="Path_6208" data-name="Path 6208" d="M5.4,6.679c.588,1.046-2.59,1.07-4.411-.356S.119.314,1.738.02s-.984,2.7.131,4.548S4.815,5.632,5.4,6.679Z" transform="translate(1193.66 366.942) rotate(5)" fill="#f18c7c"/>
    <path id="Path_6209" data-name="Path 6209" d="M-19716-16384.318c.068.1,1.5,3.859-.307,4.265s-2.021-.655-2.021-.655" transform="translate(23024.742 13847.474) rotate(-8)" fill="none" stroke="#f18c7c" stroke-linecap="round" stroke-width="1"/>
    <path id="Path_6180" data-name="Path 6180" d="M142.381,197.185h.976l36.7,1.755-.314,5.665s11.526,7.944,11.412,42.128H125.662s-3.937-29.674,17.263-43.713" transform="translate(1049.66 261.297)" fill="#1b55c9"/>
    <path id="Path_6206" data-name="Path 6206" d="M-14529.357-23363.215l-6.153,5.414-2.754,20.074h5.553l-1.686-18.074Z" transform="translate(15747.737 23845.689)" fill="#042d7e"/>
  </g>
</svg>
